<svg viewBox="0 0 1281 113" xmlns="http://www.w3.org/2000/svg">
<path fill-rule="evenodd" clip-rule="evenodd" d="M1280.47 0.421875H0.468506V112.469H1280.47V0.421875ZM950.025 68.1301V8.0459H965.663V45.7454C970.259 38.5486 978.019 34.6206 987.347 34.6206C1003.12 34.6206 1019.67 45.8809 1019.67 68.0037C1019.67 88.5557 1005.22 102.696 984.583 102.696C963.95 102.696 950.016 89.0793 950.016 68.1392L950.025 68.1301ZM1003.91 68.6538C1003.91 57.2673 996.159 49.1494 984.719 49.1494C973.278 49.1494 965.663 57.2673 965.663 68.6538C965.663 80.0405 973.287 88.1582 984.719 88.1582C996.15 88.1582 1003.91 80.0405 1003.91 68.6538ZM1065.87 68.6602C1065.87 49.0239 1080.33 34.6331 1100.83 34.6331C1121.33 34.6331 1135.53 49.033 1135.53 68.6602V74.1582H1082.3C1084.41 83.5835 1091.63 88.5581 1100.83 88.5581C1107.8 88.5581 1112.93 86.5898 1116.21 82.4099H1132.9C1128.04 94.7153 1116.21 102.696 1100.83 102.696C1080.33 102.696 1065.87 88.2964 1065.87 68.6692V68.6602ZM1118.98 61.7175C1116.47 53.0776 1109.38 48.762 1100.83 48.762C1092.28 48.762 1085.19 53.2129 1082.69 61.7175H1118.97H1118.98ZM1160.52 8.0459H1144.57V101.101H1160.52V8.0459ZM1174.35 8.0459H1190.3V101.101H1174.35V8.0459ZM1233.9 34.6331C1213.27 34.6331 1198.81 48.771 1198.81 69.3191H1198.82C1198.82 91.438 1215.37 102.696 1231.15 102.696C1241.4 102.696 1250.2 97.8481 1254.14 88.2964V100.99H1268.47V69.1836C1268.47 48.3738 1254.53 34.6331 1233.9 34.6331ZM1233.77 49.1682C1245.2 49.1682 1252.82 57.2847 1252.82 68.6692C1252.82 80.0535 1245.21 88.1699 1233.77 88.1699C1222.32 88.1699 1214.57 80.0535 1214.57 68.6692C1214.57 57.2847 1222.33 49.1682 1233.77 49.1682ZM12.8733 74.1555C12.8733 71.6548 13.1262 68.6467 13.7493 65.394L22.5989 19.2124H38.8169L29.5881 66.8979C29.3352 68.1484 28.9651 70.2776 28.9651 72.5337C28.9651 82.0471 35.2048 87.9275 46.1765 87.9275C57.7803 87.9275 63.7583 81.4221 65.8804 70.5312L75.7324 19.2214H91.5713L81.3401 72.0354C77.719 90.8088 65.2483 102.696 45.2917 102.696C27.0869 102.687 12.8733 92.929 12.8733 74.1555ZM188.932 66.4924C189.331 64.4097 189.657 62.6226 189.792 60.3411C192.048 52.4365 197.183 49.1765 203.511 49.1765C210.073 49.1765 215.323 52.5864 215.323 60.4551C215.323 62.1553 215.06 64.1272 214.798 65.303L207.846 101.101H216.445H223.722H223.867L231.217 62.8157C233.054 53.1108 238.567 49.1765 245.518 49.1765C252.08 49.1765 257.33 52.5864 257.33 60.4551C257.33 62.1553 257.068 64.1272 256.805 65.303L249.854 101.101H258.453H265.73H265.875L273.224 62.8157C275.062 53.1108 280.574 49.1765 287.525 49.1765C294.088 49.1765 299.337 52.5864 299.337 60.4551C299.337 62.1553 299.075 64.1272 298.812 65.303L291.861 101.101H299.929H307.351H307.737L314.426 66.4878C314.823 64.4062 315.148 62.6204 315.282 60.3413C317.539 52.4365 322.674 49.1765 329.002 49.1765C335.564 49.1765 340.814 52.5864 340.814 60.4551C340.814 62.1553 340.551 64.1272 340.289 65.303L333.337 101.101H341.938H349.213H349.359L356.709 62.8157C358.547 53.1108 364.059 49.1765 371.01 49.1765C377.572 49.1765 382.822 52.5864 382.822 60.4551C382.822 62.1553 382.56 64.1272 382.297 65.303L375.346 101.101H383.413H390.835H391.222L397.911 66.4878C398.308 64.4048 398.633 62.6174 398.768 60.3359C401.025 52.4351 406.159 49.1765 412.485 49.1765C419.048 49.1765 424.297 52.5864 424.297 60.4551C424.297 62.1553 424.035 64.1272 423.772 65.303L416.821 101.101H425.421H432.697H432.843L440.192 62.8157C442.03 53.1108 447.542 49.1765 454.494 49.1765C461.056 49.1765 466.305 52.5864 466.305 60.4551C466.305 62.1553 466.043 64.1272 465.781 65.303L458.829 101.101H466.896H474.319H474.705L481.394 66.4878C481.792 64.4058 482.116 62.6191 482.251 60.3391C484.508 52.436 489.642 49.1765 495.969 49.1765C502.532 49.1765 507.781 52.5864 507.781 60.4551C507.781 62.1553 507.519 64.1272 507.256 65.303L500.305 101.101H508.905H516.181H516.327L523.676 62.8157C525.514 53.1108 531.026 49.1765 537.977 49.1765C544.54 49.1765 549.789 52.5864 549.789 60.4551C549.789 62.1553 549.527 64.1272 549.264 65.303L542.313 101.101H550.381H557.803H558.189L564.878 66.4878C565.275 64.406 565.6 62.6199 565.734 60.3401C567.991 52.4363 573.126 49.1765 579.454 49.1765C586.016 49.1765 591.265 52.5864 591.265 60.4551C591.265 62.1553 591.003 64.1272 590.74 65.303L583.789 101.101H592.388H599.665H599.81L607.16 62.8157C608.997 53.1108 614.509 49.1765 621.461 49.1765C628.023 49.1765 633.273 52.5864 633.273 60.4551C633.273 62.1553 633.01 64.1272 632.748 65.303L625.796 101.101H633.863H641.285H641.672L648.361 66.4878C648.759 64.405 649.084 62.6182 649.218 60.3369C651.475 52.4353 656.61 49.1765 662.936 49.1765C669.498 49.1765 674.748 52.5864 674.748 60.4551C674.748 62.1553 674.486 64.1272 674.223 65.303L667.272 101.101H675.872H683.148H683.294L690.644 62.8157C692.481 53.1108 697.993 49.1765 704.945 49.1765C711.507 49.1765 716.756 52.5864 716.756 60.4551C716.756 62.1553 716.494 64.1272 716.231 65.303L709.28 101.101H717.348H724.77H725.156L731.845 66.4878C732.242 64.406 732.567 62.6199 732.702 60.3401C734.958 52.4363 740.093 49.1765 746.421 49.1765C752.983 49.1765 758.233 52.5864 758.233 60.4551C758.233 62.1553 757.97 64.1272 757.708 65.303L750.756 101.101H759.356H766.632H766.778L774.128 62.8157C775.965 53.1108 781.478 49.1765 788.429 49.1765C794.991 49.1765 800.241 52.5864 800.241 60.4551C800.241 62.1553 799.979 64.1272 799.716 65.303L792.765 101.101H800.832H808.253H808.641L815.33 66.4878C815.727 64.4048 816.052 62.6174 816.187 60.3357C818.444 52.4351 823.578 49.1765 829.904 49.1765C836.466 49.1765 841.716 52.5864 841.716 60.4551C841.716 62.1553 841.454 64.1272 841.191 65.303L834.24 101.101H842.839H850.116H850.261L857.611 62.8157C859.448 53.1108 864.96 49.1765 871.912 49.1765C878.474 49.1765 883.724 52.5864 883.724 60.4551C883.724 62.1553 883.461 64.1272 883.199 65.303L876.247 101.101H884.316H891.738H892.123L898.812 66.4878C899.209 64.4072 899.534 62.6221 899.669 60.3445C901.925 52.4375 907.06 49.1765 913.389 49.1765C919.951 49.1765 925.201 52.5864 925.201 60.4551C925.201 62.1553 924.938 64.1272 924.676 65.303L917.724 101.101H933.6L940.289 66.4878C940.814 63.7383 941.213 61.5042 941.213 57.9678C941.213 42.366 930.324 34.6331 916.412 34.6331C907.912 34.6331 900.683 37.5693 895.406 43.5234C890.974 37.5859 883.531 34.6331 874.935 34.6331C866.279 34.6331 858.94 37.678 853.64 43.8545C849.24 37.6956 841.682 34.6331 832.927 34.6331C824.428 34.6331 817.199 37.5688 811.922 43.5222C807.49 37.5854 800.048 34.6331 791.452 34.6331C782.796 34.6331 775.457 37.6782 770.157 43.855C765.757 37.6958 758.199 34.6331 749.444 34.6331C740.944 34.6331 733.715 37.5691 728.438 43.5227C724.006 37.5857 716.564 34.6331 707.968 34.6331C699.312 34.6331 691.973 37.6782 686.672 43.855C682.272 37.6958 674.714 34.6331 665.959 34.6331C657.46 34.6331 650.231 37.5688 644.954 43.5225C640.522 37.5854 633.08 34.6331 624.484 34.6331C615.828 34.6331 608.49 37.678 603.189 43.8542C598.789 37.6956 591.231 34.6331 582.477 34.6331C573.977 34.6331 566.748 37.5691 561.471 43.5227C557.039 37.5857 549.597 34.6331 541 34.6331C532.345 34.6331 525.006 37.6782 519.705 43.8547C515.305 37.6956 507.748 34.6331 498.993 34.6331C490.493 34.6331 483.264 37.5691 477.987 43.5227C473.555 37.5854 466.113 34.6331 457.517 34.6331C448.861 34.6331 441.522 37.6782 436.221 43.8547C431.821 37.6958 424.264 34.6331 415.509 34.6331C407.01 34.6331 399.78 37.5688 394.503 43.5222C390.071 37.5854 382.629 34.6331 374.033 34.6331C365.377 34.6331 358.039 37.6782 352.738 43.855C348.338 37.6958 340.78 34.6331 332.025 34.6331C323.525 34.6331 316.296 37.5691 311.019 43.5229C306.587 37.5857 299.145 34.6331 290.549 34.6331C281.893 34.6331 274.554 37.678 269.254 43.8542C264.854 37.6956 257.296 34.6331 248.541 34.6331C239.885 34.6331 232.547 37.678 227.246 43.8545C222.846 37.6956 215.289 34.6331 206.534 34.6331C198.028 34.6331 190.794 37.5735 185.516 43.5361C181.072 37.5901 173.602 34.6331 164.973 34.6331C155.104 34.6331 146.942 38.5669 141.549 46.561C137.464 38.9558 129.438 34.6331 119.17 34.6331C105.479 34.6331 93.6311 42.8894 90.0811 61.374L82.4458 101.101H98.3701L105.742 62.9475C107.585 53.2441 112.978 49.1836 119.823 49.1836C126.279 49.1836 131.935 52.7285 131.935 60.7229C131.935 62.4609 131.754 63.479 131.542 64.6716C131.499 64.9189 131.453 65.1733 131.408 65.4434L124.436 101.101H140.233L147.605 62.8208C149.448 53.1174 154.977 49.1836 161.949 49.1836C168.532 49.1836 173.797 52.593 173.797 60.4604C173.797 62.1606 173.534 64.1321 173.271 65.3079L166.298 101.101H174.438H181.86H182.223L188.932 66.4924ZM1054.83 34.6331C1037.69 34.6331 1025.99 43.9385 1025.99 63.4719V101.101H1041.8V63.4719C1041.8 52.9817 1047.12 49.1836 1054.83 49.1836C1057.07 49.1836 1059.1 49.5183 1060.87 50.2327L1063.75 35.6006C1060.99 34.9495 1058.01 34.6331 1054.83 34.6331Z" fill="white"/>
</svg>
