<?xml version="1.0" encoding="UTF-8"?>
<svg data-name="Layer 2" xmlns="http://www.w3.org/2000/svg" viewBox="0 0 1280 134.6">
  <defs>
    <style>
      .cls-1 {
        fill: #fff;
      }
    </style>
  </defs>
    <g>
      <path class="cls-1" d="m423.83,81.42c0-7.87-5.25-11.28-11.81-11.28s-11.46,3.26-13.72,11.16c-.14,2.28-.46,4.07-.86,6.15l-4.47,23.14h25.61l4.72-24.33c.26-1.18.52-3.15.52-4.85Z"/>
      <path class="cls-1" d="m382.35,81.42c0-7.87-5.25-11.28-11.81-11.28-6.95,0-12.46,3.93-14.3,13.64l-5.15,26.81h26.01l4.72-24.33c.26-1.18.53-3.15.53-4.85Z"/>
      <path class="cls-1" d="m465.84,81.42c0-7.87-5.25-11.28-11.81-11.28-6.95,0-12.46,3.93-14.3,13.64l-5.15,26.81h26.01l4.72-24.33c.26-1.18.52-3.15.52-4.85Z"/>
      <path class="cls-1" d="m549.32,81.42c0-7.87-5.25-11.28-11.81-11.28-6.95,0-12.46,3.93-14.3,13.64l-5.15,26.81h26.01l4.72-24.33c.26-1.18.53-3.15.53-4.85Z"/>
      <path class="cls-1" d="m507.31,81.42c0-7.87-5.25-11.28-11.81-11.28s-11.46,3.26-13.72,11.16c-.14,2.28-.46,4.07-.86,6.15l-4.47,23.14h25.61l4.72-24.33c.26-1.18.52-3.15.52-4.85Z"/>
      <path class="cls-1" d="m256.86,81.42c0-7.87-5.25-11.28-11.81-11.28-6.95,0-12.46,3.93-14.3,13.64l-5.15,26.81h26.01l4.72-24.33c.26-1.18.53-3.15.53-4.85Z"/>
      <path class="cls-1" d="m131.07,85.64c.21-1.19.39-2.21.39-3.95,0-7.99-5.66-11.54-12.11-11.54-6.85,0-12.24,4.06-14.08,13.76l-5.16,26.68h26.09l4.73-24.19c.04-.27.09-.52.13-.77Z"/>
      <path class="cls-1" d="m173.33,81.43c0-7.87-5.27-11.28-11.85-11.28-6.97,0-12.5,3.93-14.35,13.64l-5.16,26.81h26.09l4.74-24.32c.26-1.18.53-3.15.53-4.85Z"/>
      <path class="cls-1" d="m12,134.6c0-7.61,3.54-14.39,9.06-18.78-5.4-4.78-8.66-11.7-8.66-20.69,0-2.5.25-5.51.88-8.76l8.85-46.18h16.22l-9.23,47.69c-.25,1.25-.62,3.38-.62,5.64,0,9.51,6.24,15.39,17.21,15.39,11.6,0,17.58-6.51,19.7-17.4l9.85-51.31h15.84l-10.23,52.81c-1.32,6.87-3.83,12.81-7.46,17.59h10.77l5.43-28.26c3.55-18.48,15.4-26.74,29.09-26.74,10.27,0,18.29,4.32,22.38,11.93,5.39-7.99,13.55-11.93,23.42-11.93,8.63,0,16.1,2.96,20.54,8.9,5.28-5.96,12.51-8.9,21.02-8.9s16.31,3.06,20.71,9.22c5.3-6.18,12.64-9.22,21.29-9.22s16.31,3.06,20.71,9.22c5.3-6.18,12.64-9.22,21.29-9.22s16.04,2.95,20.47,8.89c5.28-5.95,12.51-8.89,21.01-8.89s16.31,3.06,20.71,9.22c5.3-6.18,12.64-9.22,21.29-9.22s16.04,2.95,20.47,8.89c5.28-5.95,12.51-8.89,21.01-8.89s16.31,3.06,20.71,9.22c5.3-6.18,12.64-9.22,21.3-9.22s16.04,2.95,20.47,8.89c5.28-5.95,12.51-8.89,21.01-8.89s16.31,3.06,20.71,9.22c5.3-6.18,12.64-9.22,21.29-9.22s16.04,2.95,20.47,8.89c5.28-5.95,12.51-8.89,21.01-8.89s16.31,3.06,20.71,9.22c5.3-6.18,12.64-9.22,21.29-9.22s16.04,2.95,20.47,8.89c5.28-5.95,12.51-8.89,21.01-8.89s16.31,3.06,20.71,9.22c5.3-6.18,12.64-9.22,21.3-9.22s16.04,2.95,20.47,8.89c5.28-5.95,12.51-8.89,21.01-8.89s16.31,3.06,20.71,9.22c5.3-6.18,12.64-9.22,21.3-9.22s16.04,2.95,20.47,8.89c5.28-5.95,12.51-8.89,21.01-8.89s16.31,3.06,20.71,9.22c5.3-6.18,12.64-9.22,21.29-9.22s16.04,2.95,20.47,8.89c5.28-5.95,12.51-8.89,21.01-8.89,13.91,0,24.8,7.73,24.8,23.33,0,3.54-.4,5.77-.92,8.52l-4.47,23.14h20.63c-4.12-5.67-6.43-12.97-6.43-21.49h0V29.02h15.64v37.7c4.6-7.2,12.36-11.12,21.68-11.12,15.77,0,32.32,11.26,32.32,33.38,0,8.48-2.46,15.87-6.8,21.63h13.12v-26.16c0-19.53,11.7-28.84,28.84-28.84,3.18,0,6.16.32,8.92.97l-2.88,14.63c-1.77-.71-3.8-1.05-6.04-1.05-7.71,0-13.03,3.8-13.03,14.29v26.16h30.85c-4.32-5.67-6.78-12.87-6.78-20.96h0c0-19.65,14.46-34.04,34.96-34.04s34.7,14.4,34.7,34.03v5.5h-53.23c2.11,9.43,9.33,14.4,18.53,14.4,6.97,0,12.1-1.97,15.38-6.15h16.69c-1.03,2.61-2.38,5.03-4,7.22h15.67V29.02h15.95v81.58h13.83V29.02h15.95v81.58h14.61c-3.75-5.22-6.09-12-6.09-20.31h0c0-20.55,14.46-34.69,35.09-34.69s34.57,13.74,34.57,34.55v31.81h-3.6c2.28,3.67,3.6,8,3.6,12.64h12V0H0v134.6h12Z"/>
      <path class="cls-1" d="m590.8,81.42c0-7.87-5.25-11.28-11.81-11.28s-11.46,3.26-13.72,11.16c-.13,2.28-.46,4.07-.86,6.15l-4.47,23.14h25.61l4.72-24.33c.26-1.18.53-3.15.53-4.85Z"/>
      <path class="cls-1" d="m298.87,81.42c0-7.87-5.25-11.28-11.81-11.28-6.95,0-12.46,3.93-14.3,13.64l-5.15,26.81h26.01l4.72-24.33c.26-1.18.53-3.15.53-4.85Z"/>
      <path class="cls-1" d="m214.85,81.42c0-7.87-5.25-11.28-11.81-11.28s-11.46,3.26-13.72,11.16c-.13,2.28-.46,4.07-.86,6.15l-4.49,23.14h25.63l4.72-24.33c.26-1.18.52-3.15.52-4.85Z"/>
      <path class="cls-1" d="m340.35,81.42c0-7.87-5.25-11.28-11.81-11.28s-11.46,3.26-13.72,11.16c-.13,2.28-.46,4.07-.86,6.15l-4.47,23.14h25.61l4.72-24.33c.26-1.18.53-3.15.53-4.85Z"/>
      <path class="cls-1" d="m883.26,81.42c0-7.87-5.25-11.28-11.81-11.28-6.95,0-12.46,3.93-14.3,13.64l-5.15,26.81h26.01l4.72-24.33c.26-1.18.53-3.15.53-4.85Z"/>
      <path class="cls-1" d="m1003.44,89.62c0-11.39-7.75-19.5-19.19-19.5s-19.06,8.12-19.06,19.5,7.62,19.5,19.06,19.5,19.19-8.12,19.19-19.5Z"/>
      <path class="cls-1" d="m924.73,81.42c0-7.87-5.25-11.28-11.81-11.28s-11.46,3.26-13.72,11.17c-.14,2.28-.46,4.06-.86,6.14l-4.47,23.14h25.61l4.72-24.33c.26-1.18.52-3.15.52-4.85Z"/>
      <path class="cls-1" d="m1233.3,70.14c-11.44,0-19.2,8.12-19.2,19.5s7.75,19.5,19.2,19.5,19.05-8.12,19.05-19.5-7.62-19.5-19.05-19.5Z"/>
      <path class="cls-1" d="m1253.67,109.27c-.4.99-.86,1.92-1.37,2.81.47.17.92.36,1.37.56v-3.36Z"/>
      <path class="cls-1" d="m1100.36,69.73c-8.55,0-15.64,4.45-18.14,12.96h36.29c-2.51-8.64-9.6-12.96-18.15-12.96Z"/>
      <path class="cls-1" d="m799.77,81.42c0-7.87-5.25-11.28-11.81-11.28-6.95,0-12.46,3.93-14.3,13.64l-5.15,26.81h26.01l4.72-24.33c.26-1.18.53-3.15.53-4.85Z"/>
      <path class="cls-1" d="m716.29,81.42c0-7.87-5.25-11.28-11.81-11.28-6.95,0-12.46,3.93-14.3,13.64l-5.15,26.81h26.01l4.72-24.33c.26-1.18.52-3.15.52-4.85Z"/>
      <path class="cls-1" d="m674.28,81.42c0-7.87-5.25-11.28-11.81-11.28s-11.46,3.26-13.72,11.16c-.13,2.28-.46,4.07-.86,6.15l-4.47,23.14h25.61l4.72-24.33c.26-1.18.52-3.15.52-4.85Z"/>
      <path class="cls-1" d="m757.76,81.42c0-7.87-5.25-11.28-11.81-11.28s-11.46,3.26-13.72,11.16c-.14,2.28-.46,4.07-.86,6.15l-4.47,23.14h25.61l4.72-24.33c.26-1.18.52-3.15.52-4.85Z"/>
      <path class="cls-1" d="m632.8,81.42c0-7.87-5.25-11.28-11.81-11.28-6.95,0-12.46,3.93-14.3,13.64l-5.15,26.81h26.01l4.72-24.33c.26-1.18.53-3.15.53-4.85Z"/>
      <path class="cls-1" d="m841.25,81.42c0-7.87-5.25-11.28-11.81-11.28s-11.46,3.26-13.72,11.16c-.13,2.28-.46,4.07-.86,6.15l-4.47,23.14h25.61l4.72-24.33c.26-1.18.53-3.15.53-4.85Z"/>
    </g>
</svg>