<?xml version="1.0" encoding="UTF-8"?>
<svg width="1280px" height="100%" xmlns="http://www.w3.org/2000/svg" viewBox="0 0 1280 112">
  <defs>
    <style>
      .cls-1 {
        fill: #fff;
        fill-rule: evenodd;
      }
    </style>
  </defs>
  <g>
    <path class="cls-1" d="m1280,0H0v112h1280V0Zm-330.44,67.71V7.62h15.64v37.7c4.6-7.2,12.36-11.12,21.68-11.12,15.77,0,32.32,11.26,32.32,33.38,0,20.55-14.45,34.69-35.09,34.69s-34.57-13.62-34.57-34.56h0Zm53.88.52c0-11.39-7.75-19.5-19.19-19.5s-19.06,8.12-19.06,19.5,7.62,19.5,19.06,19.5,19.19-8.12,19.19-19.5Zm61.96,0c0-19.64,14.46-34.03,34.96-34.03s34.7,14.4,34.7,34.03v5.5h-53.23c2.11,9.43,9.33,14.4,18.53,14.4,6.97,0,12.1-1.97,15.38-6.15h16.69c-4.86,12.31-16.69,20.29-32.07,20.29-20.5,0-34.96-14.4-34.96-34.03h0Zm53.11-6.94c-2.51-8.64-9.6-12.96-18.15-12.96s-15.64,4.45-18.14,12.96h36.29Zm41.54-53.67h-15.95v93.06h15.95V7.62Zm13.83,0h15.95v93.06h-15.95V7.62Zm59.55,26.59c-20.63,0-35.09,14.14-35.09,34.69h0c0,22.12,16.55,33.38,32.33,33.38,10.25,0,19.05-4.85,22.99-14.4v12.69h14.33v-31.81c0-20.81-13.94-34.55-34.57-34.55Zm-.13,14.54c11.43,0,19.05,8.12,19.05,19.5s-7.61,19.5-19.05,19.5-19.2-8.12-19.2-19.5,7.76-19.5,19.2-19.5ZM12.4,73.73c0-2.5.25-5.51.88-8.76l8.85-46.18h16.22l-9.23,47.69c-.25,1.25-.62,3.38-.62,5.64,0,9.51,6.24,15.39,17.21,15.39,11.6,0,17.58-6.51,19.7-17.4l9.85-51.31h15.84l-10.23,52.81c-3.62,18.77-16.09,30.66-36.05,30.66-18.2,0-32.42-9.77-32.42-28.54Zm176.06-7.66c.4-2.08.72-3.87.86-6.15,2.26-7.9,7.39-11.16,13.72-11.16s11.81,3.41,11.81,11.28c0,1.7-.26,3.67-.52,4.85l-6.95,35.8h16.02l7.35-38.29c1.84-9.7,7.35-13.64,14.3-13.64,6.56,0,11.81,3.41,11.81,11.28,0,1.7-.26,3.67-.52,4.85l-6.95,35.8h16.02l7.35-38.29c1.84-9.7,7.35-13.64,14.3-13.64,6.56,0,11.81,3.41,11.81,11.28,0,1.7-.26,3.67-.52,4.85l-6.95,35.8h15.88l6.69-34.61c.4-2.08.72-3.87.86-6.15,2.26-7.9,7.39-11.16,13.72-11.16s11.81,3.41,11.81,11.28c0,1.7-.26,3.67-.52,4.85l-6.95,35.8h16.02l7.35-38.29c1.84-9.7,7.35-13.64,14.3-13.64,6.56,0,11.81,3.41,11.81,11.28,0,1.7-.26,3.67-.52,4.85l-6.95,35.8h15.88l6.69-34.61c.4-2.08.72-3.87.86-6.15,2.26-7.9,7.39-11.16,13.72-11.16s11.81,3.41,11.81,11.28c0,1.7-.26,3.67-.52,4.85l-6.95,35.8h16.02l7.35-38.29c1.84-9.7,7.35-13.64,14.3-13.64,6.56,0,11.81,3.41,11.81,11.28,0,1.7-.26,3.67-.52,4.85l-6.95,35.8h15.88l6.69-34.61c.4-2.08.72-3.87.86-6.15,2.26-7.9,7.39-11.16,13.72-11.16s11.81,3.41,11.81,11.28c0,1.7-.26,3.67-.52,4.85l-6.95,35.8h16.02l7.35-38.29c1.84-9.7,7.35-13.64,14.3-13.64,6.56,0,11.81,3.41,11.81,11.28,0,1.7-.26,3.67-.53,4.85l-6.95,35.8h15.88l6.69-34.61c.4-2.08.72-3.87.86-6.15,2.26-7.9,7.39-11.16,13.72-11.16s11.81,3.41,11.81,11.28c0,1.7-.26,3.67-.53,4.85l-6.95,35.8h16.02l7.35-38.29c1.84-9.7,7.35-13.64,14.3-13.64,6.56,0,11.81,3.41,11.81,11.28,0,1.7-.26,3.67-.53,4.85l-6.95,35.8h15.88l6.69-34.61c.4-2.08.72-3.87.86-6.15,2.26-7.9,7.39-11.16,13.72-11.16s11.81,3.41,11.81,11.28c0,1.7-.26,3.67-.52,4.85l-6.95,35.8h16.02l7.35-38.29c1.84-9.7,7.35-13.64,14.3-13.64,6.56,0,11.81,3.41,11.81,11.28,0,1.7-.26,3.67-.52,4.85l-6.95,35.8h15.88l6.69-34.61c.4-2.08.72-3.87.86-6.15,2.26-7.9,7.39-11.16,13.72-11.16s11.81,3.41,11.81,11.28c0,1.7-.26,3.67-.52,4.85l-6.95,35.8h16.02l7.35-38.29c1.84-9.7,7.35-13.64,14.3-13.64,6.56,0,11.81,3.41,11.81,11.28,0,1.7-.26,3.67-.53,4.85l-6.95,35.8h15.88l6.69-34.61c.4-2.08.72-3.87.86-6.15,2.26-7.9,7.39-11.16,13.72-11.16s11.81,3.41,11.81,11.28c0,1.7-.26,3.67-.53,4.85l-6.95,35.8h16.02l7.35-38.29c1.84-9.7,7.35-13.64,14.3-13.64,6.56,0,11.81,3.41,11.81,11.28,0,1.7-.26,3.67-.53,4.85l-6.95,35.8h15.88l6.69-34.61c.4-2.08.72-3.87.86-6.14,2.26-7.91,7.39-11.17,13.72-11.17s11.81,3.41,11.81,11.28c0,1.7-.26,3.67-.52,4.85l-6.95,35.8h15.88l6.69-34.61c.53-2.75.92-4.98.92-8.52,0-15.6-10.89-23.33-24.8-23.33-8.5,0-15.73,2.94-21.01,8.89-4.43-5.94-11.88-8.89-20.47-8.89s-15.99,3.04-21.29,9.22c-4.4-6.16-11.96-9.22-20.71-9.22s-15.73,2.94-21.01,8.89c-4.43-5.94-11.87-8.89-20.47-8.89s-16,3.05-21.3,9.22c-4.4-6.16-11.96-9.22-20.71-9.22s-15.73,2.94-21.01,8.89c-4.43-5.94-11.87-8.89-20.47-8.89s-15.99,3.05-21.3,9.22c-4.4-6.16-11.96-9.22-20.71-9.22s-15.73,2.94-21.01,8.89c-4.43-5.94-11.87-8.89-20.47-8.89s-15.99,3.04-21.29,9.22c-4.4-6.16-11.96-9.22-20.71-9.22s-15.73,2.94-21.01,8.89c-4.43-5.94-11.87-8.89-20.47-8.89s-15.99,3.05-21.29,9.22c-4.4-6.16-11.96-9.22-20.71-9.22s-15.73,2.94-21.01,8.89c-4.43-5.94-11.87-8.89-20.47-8.89s-15.99,3.05-21.3,9.22c-4.4-6.16-11.96-9.22-20.71-9.22s-15.73,2.94-21.01,8.89c-4.43-5.94-11.87-8.89-20.47-8.89s-15.99,3.05-21.29,9.22c-4.4-6.16-11.96-9.22-20.71-9.22s-15.73,2.94-21.01,8.89c-4.43-5.94-11.87-8.89-20.47-8.89s-16,3.04-21.3,9.22c-4.4-6.16-11.96-9.22-20.71-9.22s-15.99,3.04-21.29,9.22c-4.4-6.16-11.96-9.22-20.71-9.22s-15.74,2.94-21.02,8.9c-4.44-5.95-11.91-8.9-20.54-8.9-9.87,0-18.03,3.93-23.42,11.93-4.08-7.61-12.11-11.93-22.38-11.93-13.69,0-25.54,8.26-29.09,26.74l-7.64,39.73h15.92l7.37-38.15c1.84-9.7,7.24-13.76,14.08-13.76,6.46,0,12.11,3.54,12.11,11.54,0,1.74-.18,2.76-.39,3.95-.04.25-.09.5-.13.77l-6.97,35.66h15.8l7.37-38.28c1.84-9.7,7.37-13.64,14.34-13.64,6.58,0,11.85,3.41,11.85,11.28,0,1.7-.26,3.67-.53,4.85l-6.97,35.79h15.93l6.71-34.61Zm865.9-31.86c-17.14,0-28.84,9.31-28.84,28.84v37.63h15.81v-37.63c0-10.49,5.32-14.29,13.03-14.29,2.24,0,4.27.33,6.04,1.05l2.88-14.63c-2.76-.65-5.74-.97-8.92-.97Z"/>
  </g>
</svg>