<svg width="925" height="131" viewBox="0 0 925 131" fill="none" xmlns="http://www.w3.org/2000/svg">
<path fill-rule="evenodd" clip-rule="evenodd" d="M485.01 0.284714V83.263L484.997 83.2754C484.997 112.194 504.24 131 532.734 131C561.229 131 581.198 111.471 581.198 83.0884C581.198 52.5358 558.337 36.9852 536.553 36.9852C523.67 36.9852 512.954 42.4098 506.606 52.3488V0.284714H485.01ZM532.922 57.0501C548.722 57.0501 559.426 68.261 559.426 83.9863C559.426 99.7115 548.709 110.922 532.922 110.922C517.135 110.922 506.606 99.7115 506.606 83.9863C506.606 68.261 517.123 57.0501 532.922 57.0501ZM693.281 37.0024C664.971 37.0024 645 56.8766 645 83.9948V84.0073C645 111.113 664.958 131 693.281 131C714.517 131 730.858 119.978 737.569 102.984H714.517C709.985 108.757 702.898 111.475 693.281 111.475C680.572 111.475 670.593 104.605 667.688 91.5879H741.2V83.9948C741.2 56.8891 721.592 37.0024 693.281 37.0024ZM693.281 56.515C705.089 56.515 714.881 62.4748 718.336 74.4068H718.324H668.227C671.682 62.6618 681.474 56.515 693.281 56.515ZM753.684 0.284714H775.715V128.797H753.684V0.284714ZM816.838 0.284714H794.807V128.797H816.838V0.284714ZM828.588 84.905C828.588 56.5275 848.557 37.0024 877.051 37.0024C905.546 37.0024 924.788 55.9789 924.788 84.718V128.643H905.007V111.113C899.561 124.304 887.405 131 873.245 131C851.461 131 828.6 115.452 828.6 84.905H828.588ZM903.179 84.0073C903.179 68.285 892.651 57.0761 876.863 57.0761C861.076 57.0761 850.359 68.285 850.359 84.0073C850.359 99.7296 861.064 110.938 876.863 110.938C892.663 110.938 903.179 99.7296 903.179 84.0073ZM1.20968 79.4845C0.349187 83.9766 0 88.1309 0 91.5844C0 117.511 19.6293 130.987 44.7708 131C72.3316 131 89.554 114.583 94.5548 88.6564L108.684 15.7189H86.8104L73.2046 86.5793C70.2739 101.62 62.0181 110.604 45.9929 110.604C30.8407 110.604 22.2233 102.483 22.2233 89.3446C22.2233 86.2289 22.7346 83.2884 23.0838 81.5616L35.8291 15.7064H13.4312L1.20968 79.4845ZM244.33 72.502C244.144 75.6548 243.694 78.1236 243.143 81.0012L233.877 128.797H233.375H223.125H211.885L221.514 79.3652C221.878 77.7416 222.242 75.019 222.242 72.6711C222.242 61.8056 214.97 57.0973 205.879 57.0973C196.25 57.0973 188.614 62.53 186.069 75.9307L175.888 128.797H154.071L163.701 79.5525C163.763 79.1835 163.824 78.8354 163.884 78.4975L163.885 78.493L163.886 78.4897L163.886 78.4869C164.178 76.8396 164.428 75.4335 164.428 73.0333C164.428 61.993 156.617 57.0973 147.702 57.0973C138.248 57.0973 130.801 62.7048 128.255 76.1055L118.074 128.797H96.0822L106.627 73.9325C111.529 48.4049 127.892 37.0024 146.799 37.0024C160.98 37.0024 172.064 42.9722 177.706 53.4754C185.154 42.4352 196.426 37.0024 210.055 37.0024C221.972 37.0024 232.288 41.0859 238.425 49.2973C245.714 41.063 255.704 37.0024 267.451 37.0024C279.542 37.0024 289.979 41.232 296.056 49.7378C303.376 41.2079 313.511 37.0024 325.465 37.0024C337.556 37.0024 347.993 41.232 354.07 49.7378C361.39 41.2079 371.525 37.0024 383.479 37.0024C395.351 37.0024 405.628 41.0799 411.749 49.2791C419.037 41.0571 429.021 37.0024 440.758 37.0024C459.971 37.0024 475.009 47.682 475.009 69.2285C475.009 74.1124 474.459 77.1976 473.734 80.9947L464.496 128.797H442.571L452.171 79.3585C452.534 77.7347 452.896 75.0117 452.896 72.6634C452.896 61.7965 445.646 57.0875 436.583 57.0875C427.846 57.0875 420.755 61.5883 417.638 72.5017C417.452 75.6514 417.004 78.1189 416.455 80.9947L407.217 128.797H406.683H396.433H385.292L394.892 79.3585C395.254 77.7347 395.617 75.0117 395.617 72.6634C395.617 61.7965 388.367 57.0875 379.304 57.0875C369.704 57.0875 362.091 62.521 359.554 75.9235L349.404 128.797H349.203H339.154H327.277L336.878 79.3585C337.24 77.7347 337.603 75.0117 337.603 72.6634C337.603 61.7965 330.353 57.0875 321.29 57.0875C311.69 57.0875 304.077 62.521 301.54 75.9235L291.39 128.797H291.189H281.139H269.263L278.863 79.3585C279.226 77.7347 279.588 75.0117 279.588 72.6634C279.588 61.7965 272.338 57.0875 263.276 57.0875C254.538 57.0875 247.447 61.5884 244.33 72.502ZM589.923 76.8299C589.923 49.8536 606.075 37.0024 629.746 37.0024C634.138 37.0024 638.252 37.4395 642.062 38.3387L638.088 58.546C635.645 57.5593 632.847 57.0972 629.746 57.0972C619.1 57.0972 611.759 62.3426 611.759 76.8299V128.797H589.923V76.8299Z" fill="white"/>
</svg>
