<svg width="139" height="32" viewBox="0 0 139 32" fill="none" xmlns="http://www.w3.org/2000/svg">
<path fill-rule="evenodd" clip-rule="evenodd" d="M116.055 20.29V0.542358H121.195V12.9328C122.705 10.5675 125.256 9.27653 128.322 9.27653C133.506 9.27653 138.946 12.9773 138.946 20.2484C138.946 27.0031 134.194 31.6506 127.413 31.6506C120.632 31.6506 116.052 27.1752 116.052 20.2929L116.055 20.29ZM133.765 20.4621C133.765 16.7197 131.218 14.0517 127.458 14.0517C123.697 14.0517 121.195 16.7197 121.195 20.4621C121.195 24.2045 123.7 26.8725 127.458 26.8725C131.215 26.8725 133.765 24.2045 133.765 20.4621ZM0.629883 22.2703C0.629883 21.4484 0.712984 20.4598 0.91777 19.3907L3.82632 4.21248H9.15667L6.12347 19.8851C6.04037 20.296 5.91869 20.9958 5.91869 21.7373C5.91869 24.8641 7.96951 26.7967 11.5755 26.7967C15.3893 26.7967 17.354 24.6586 18.0515 21.0792L21.2895 4.21546H26.4952L23.1325 21.5735C21.9424 27.7437 17.8437 31.6507 11.2847 31.6507C5.30136 31.6477 0.629883 28.4405 0.629883 22.2703ZM58.4943 19.7517C58.6255 19.0668 58.7326 18.4793 58.7768 17.729C59.5186 15.1317 61.2062 14.0606 63.2856 14.0606C65.4424 14.0606 67.1678 15.1813 67.1678 17.7674C67.1678 18.3263 67.0815 18.9743 66.9952 19.3607L64.7105 31.1263H67.5369H69.9284H69.9763L72.3919 18.5433C72.9958 15.3537 74.8075 14.0606 77.0922 14.0606C79.2489 14.0606 80.9743 15.1813 80.9743 17.7674C80.9743 18.3263 80.8881 18.9743 80.8018 19.3607L78.5171 31.1263H81.3434H83.735H83.7828L86.1984 18.5433C86.8023 15.3537 88.6139 14.0606 90.8986 14.0606C93.0554 14.0606 94.7808 15.1813 94.7808 17.7674C94.7808 18.3263 94.6945 18.9743 94.6083 19.3607L92.3236 31.1263H94.975H97.4144H97.5415L99.7399 19.7501C99.8705 19.0658 99.9773 18.4786 100.021 17.7292C100.763 15.1318 102.451 14.0606 104.53 14.0606C106.687 14.0606 108.412 15.1813 108.412 17.7674C108.412 18.3263 108.326 18.9743 108.24 19.3607L105.955 31.1263H111.173L113.372 19.7501C113.544 18.8465 113.675 18.1122 113.675 16.95C113.675 11.8222 110.096 9.28063 105.524 9.28063C102.73 9.28063 100.354 10.2456 98.6201 12.2023C97.1634 10.251 94.7175 9.28063 91.8922 9.28063C89.0474 9.28063 86.6354 10.2814 84.8933 12.3114C83.4471 10.2872 80.9632 9.28063 78.0858 9.28063C75.2409 9.28063 72.8289 10.2815 71.0868 12.3115C69.6406 10.2872 67.1567 9.28063 64.2792 9.28063C61.4837 9.28063 59.1063 10.247 57.3716 12.2066C55.9109 10.2524 53.4559 9.28063 50.6198 9.28063C47.3763 9.28063 44.6937 10.5735 42.9213 13.201C41.5785 10.7013 38.9407 9.28063 35.5659 9.28063C31.0662 9.28063 27.1722 11.9943 26.0055 18.0694L23.496 31.1263H28.7298L31.1527 18.5866C31.7585 15.3974 33.5309 14.0629 35.7808 14.0629C37.9023 14.0629 39.7613 15.228 39.7613 17.8554C39.7613 18.4267 39.7019 18.7613 39.6324 19.1534L39.6323 19.1538L39.6322 19.1544L39.632 19.1552C39.6177 19.2358 39.603 19.3189 39.5882 19.4069L37.2966 31.1263H42.4886L44.9115 18.545C45.5173 15.3558 47.3345 14.0629 49.6261 14.0629C51.7895 14.0629 53.5201 15.1834 53.5201 17.7692C53.5201 18.328 53.4336 18.976 53.3471 19.3623L51.0554 31.1263H53.7304H56.1698H56.2892L58.4943 19.7517Z" fill="white"/>
</svg>
