<svg width="445" height="58" viewBox="0 0 445 58" fill="none" xmlns="http://www.w3.org/2000/svg">
<path d="M415.223 43.7018L418.807 25.2431C420.361 17.2383 425.498 13.4152 432.188 13.4152C439.476 13.4152 444.673 16.9994 444.673 24.2275C444.673 25.1236 444.554 26.1989 444.494 26.856H437.326C437.445 26.2586 437.505 25.6612 437.505 25.0639C437.505 21.4796 435.235 20.046 431.83 20.046C429.022 20.046 426.693 21.6589 425.856 25.9599L422.392 43.7018H415.223Z" fill="white"/>
<path d="M393.184 14.1917L390.316 28.9467C390.137 29.8428 390.077 30.8583 390.077 31.3959C390.077 35.7567 392.825 37.8475 396.708 37.8475C400.83 37.8475 403.757 35.5775 404.773 30.3804L407.939 14.1917H415.107L411.822 31.0375C410.089 39.9383 404.295 44.4783 396.35 44.4783C388.644 44.4783 382.79 40.237 382.79 32.2322C382.79 30.8583 382.969 29.4246 383.208 28.2299L385.956 14.1917H393.184Z" fill="white"/>
<path d="M346.419 30.4402C346.419 21.0615 353.946 13.4152 363.863 13.4152C372.106 13.4152 378.677 18.7317 378.677 27.5131C378.677 36.8918 371.151 44.4783 361.294 44.4783C352.991 44.4783 346.419 39.1618 346.419 30.4402ZM361.593 37.8475C367.387 37.8475 371.33 33.3673 371.33 27.991C371.33 23.212 368.283 20.046 363.444 20.046C357.71 20.046 353.707 24.5262 353.707 29.9623C353.707 34.6815 356.754 37.8475 361.593 37.8475Z" fill="white"/>
<path d="M322.909 57.0828C315.92 57.0828 309.887 53.6778 309.05 46.9275H316.159C317.055 49.6157 319.683 50.9299 323.088 50.9299C329.421 50.9299 330.615 46.2107 331.093 43.642L331.81 39.9383C329.54 42.8057 326.553 44.1199 323.148 44.1199C317.175 44.1199 311.619 40.1773 311.619 32.1128C311.619 30.8583 311.738 29.4844 312.037 27.9909L314.785 14.1917H322.013L319.206 28.4688C319.026 29.3649 318.907 30.1415 318.907 31.0375C318.907 35.2191 321.655 37.4891 325.538 37.4891C329.6 37.4891 332.826 34.9204 333.781 29.9025L336.828 14.1917H344.056L338.202 44.1199C336.41 53.2596 330.376 57.0828 322.909 57.0828Z" fill="white"/>
<path d="M276.94 13.4152C285.124 13.4152 291.695 18.672 291.695 27.0352C291.695 28.1702 291.576 29.3052 291.337 30.4402L291.158 31.4557H266.845C267.323 35.7568 270.429 38.0268 275.208 38.0268C278.135 38.0268 280.405 37.1904 282.018 35.2191H289.724C286.916 40.8941 281.301 44.4783 274.312 44.4783C265.71 44.4783 259.497 38.9825 259.497 30.4402C259.497 21.0615 267.024 13.4152 276.94 13.4152ZM276.343 19.8667C271.982 19.8667 268.995 22.3757 267.621 25.7807H284.348C283.631 21.8978 280.405 19.8667 276.343 19.8667Z" fill="white"/>
<path d="M226.021 43.7017L227.156 37.9073L247.048 20.3446H231.397L232.651 14.1917H258.338L257.203 19.9862L237.311 37.5488H254.455L253.201 43.7017H226.021Z" fill="white"/>
<path d="M223.333 10.3686C220.824 10.3686 218.913 8.7557 218.913 6.06754C218.913 3.14044 221.242 0.870438 224.11 0.870438C226.619 0.870438 228.53 2.54307 228.53 5.17149C228.53 7.85965 226.44 10.3686 223.333 10.3686ZM212.76 43.7018L218.495 14.1918H225.603L219.868 43.7018H212.76Z" fill="white"/>
<path d="M198.213 13.4152C204.545 13.4152 209.504 16.9396 209.504 24.0483C209.504 25.6612 209.324 26.6767 209.085 27.9312L206.039 43.7018H198.811L201.977 27.3936C202.096 26.856 202.216 25.9599 202.216 25.1833C202.216 21.5991 199.826 20.046 196.839 20.046C193.673 20.046 191.164 21.8381 190.328 26.2586L186.983 43.7018H179.814L182.98 27.4533C183.1 26.7365 183.219 26.2586 183.219 25.3028C183.219 21.6589 180.651 20.046 177.724 20.046C174.617 20.046 172.168 21.8978 171.332 26.3183L167.986 43.7018H160.758L164.223 25.6015C165.836 17.1786 171.212 13.4152 177.425 13.4152C182.084 13.4152 185.728 15.3865 187.58 18.8512C190.029 15.2073 193.733 13.4152 198.213 13.4152Z" fill="white"/>
<path d="M126.956 30.4402C126.956 21.0615 134.483 13.4152 144.399 13.4152C152.643 13.4152 159.214 18.7317 159.214 27.5131C159.214 36.8918 151.687 44.4783 141.831 44.4783C133.527 44.4783 126.956 39.1618 126.956 30.4402ZM142.129 37.8475C147.924 37.8475 151.866 33.3673 151.866 27.991C151.866 23.212 148.82 20.046 143.981 20.046C138.246 20.046 134.244 24.5262 134.244 29.9623C134.244 34.6815 137.291 37.8475 142.129 37.8475Z" fill="white"/>
<path d="M108.41 20.6433L106.2 31.9336C106.08 32.531 106.02 33.1283 106.02 33.5465C106.02 36.5931 108.052 37.8475 110.62 37.8475C113.368 37.8475 115.28 36.4736 115.997 32.8894L116.235 31.5752H123.404L123.045 33.6062C121.552 41.0733 116.893 44.4783 110.262 44.4783C103.571 44.4783 98.8521 41.0136 98.8521 34.5023C98.8521 33.666 98.9118 32.531 99.1507 31.2765L104.527 3.73778H111.695L109.664 14.1917H124.838L123.583 20.6433H108.41Z" fill="white"/>
<path d="M95.6492 22.6744H88.5405C88.421 20.942 86.8679 19.6278 83.5823 19.6278C80.5357 19.6278 78.9228 20.8225 78.9228 22.5549C78.9228 24.6457 81.2526 25.3028 84.3589 26.0794C88.3015 27.0949 93.9168 28.6481 93.9168 34.6218C93.9168 41.372 88.8392 44.4783 81.4915 44.4783C73.8452 44.4783 68.7676 41.0733 68.7676 34.9802H75.936C75.936 36.9515 77.9671 38.3254 81.7902 38.3254C85.1355 38.3254 86.7484 37.1904 86.7484 35.4581C86.7484 33.1881 84.12 32.5907 81.3721 31.8739C77.0113 30.7389 71.7544 29.3649 71.7544 23.5107C71.7544 16.7604 76.7126 13.4152 83.7018 13.4152C90.7508 13.4152 95.6492 16.8799 95.6492 22.6744Z" fill="white"/>
<path d="M46.4303 14.1917L43.563 28.9467C43.3838 29.8428 43.324 30.8583 43.324 31.3959C43.324 35.7567 46.0719 37.8475 49.9548 37.8475C54.0767 37.8475 57.0038 35.5775 58.0193 30.3804L61.1854 14.1917H68.3538L65.0683 31.0375C63.3359 39.9383 57.5414 44.4783 49.5964 44.4783C41.8903 44.4783 36.0361 40.237 36.0361 32.2322C36.0361 30.8583 36.2153 29.4246 36.4543 28.2299L39.2022 14.1917H46.4303Z" fill="white"/>
<path d="M15.2425 44.4783C6.46117 44.4783 0.248535 38.8631 0.248535 30.7389C0.248535 21.0615 7.83512 13.4152 17.5125 13.4152C25.2186 13.4152 31.3714 17.8357 32.2078 25.2431H24.9796C23.9641 22.0173 21.0967 20.046 17.0346 20.046C11.3596 20.046 7.53643 24.7652 7.53643 30.1415C7.53643 34.6218 10.7025 37.8475 15.7204 37.8475C19.4838 37.8475 22.5901 35.936 24.1433 32.6504H31.4312C29.2209 39.8189 22.9485 44.4783 15.2425 44.4783Z" fill="white"/>
</svg>
