<?xml version="1.0" encoding="UTF-8"?>
<svg id="Layer_2" data-name="Layer 2" xmlns="http://www.w3.org/2000/svg" viewBox="0 0 787.52 53.71">
  <defs>
    <style>
      .cls-1 {
        stroke-width: 0px;
      }
    </style>
  </defs>
  <g id="Layer_1-2" data-name="Layer 1">
    <g>
      <path class="cls-1" d="m0,37.57c0-1.42.14-3.11.5-4.95L5.52,6.5h9.2l-5.24,26.97c-.14.71-.35,1.91-.35,3.19,0,5.38,3.54,8.71,9.77,8.71,6.58,0,9.98-3.68,11.18-9.84l5.59-29.02h8.99l-5.8,29.87c-2.05,10.62-9.13,17.34-20.45,17.34-10.33,0-18.4-5.52-18.4-16.14Z"/>
      <path class="cls-1" d="m102.32,29.27c0,2.01-.22,3.27-.52,4.83l-3.79,19.61h-8.99l3.94-20.28c.15-.67.3-1.78.3-2.75,0-4.46-2.97-6.39-6.69-6.39-3.94,0-7.06,2.23-8.1,7.73l-4.16,21.69h-8.91l3.94-20.21c.15-.89.3-1.49.3-2.67,0-4.53-3.19-6.54-6.83-6.54-3.86,0-6.91,2.3-7.95,7.8l-4.16,21.62h-8.99l4.31-22.51c2.01-10.47,8.69-15.15,16.42-15.15,5.79,0,10.33,2.45,12.63,6.76,3.05-4.53,7.65-6.76,13.22-6.76,7.87,0,14.04,4.38,14.04,13.22Z"/>
      <g>
        <path class="cls-1" d="m98.76,22.81c3.05-4.53,7.65-6.76,13.22-6.76,7.87,0,14.04,4.38,14.04,13.22,0,2.01-.22,3.27-.52,4.83l-3.79,19.61h-8.99l3.94-20.28c.15-.67.3-1.78.3-2.75,0-4.46-2.97-6.39-6.69-6.39-3.94,0-7.06,2.23-8.1,7.73l-4.16,21.69h-4.2l4.95-30.9Z"/>
        <path class="cls-1" d="m122.45,22.81c3.05-4.53,7.65-6.76,13.22-6.76,7.87,0,14.04,4.38,14.04,13.22,0,2.01-.22,3.27-.52,4.83l-3.79,19.61h-8.99l3.94-20.28c.15-.67.3-1.78.3-2.75,0-4.46-2.97-6.39-6.69-6.39-3.94,0-7.06,2.23-8.1,7.73l-4.16,21.69h-4.2l4.95-30.9Z"/>
        <path class="cls-1" d="m146.15,22.81c3.05-4.53,7.65-6.76,13.22-6.76,7.87,0,14.04,4.38,14.04,13.22,0,2.01-.22,3.27-.52,4.83l-3.79,19.61h-8.99l3.94-20.28c.15-.67.3-1.78.3-2.75,0-4.46-2.97-6.39-6.69-6.39-3.94,0-7.06,2.23-8.1,7.73l-4.16,21.69h-4.2l4.95-30.9Z"/>
      </g>
      <g>
        <path class="cls-1" d="m169.85,22.81c3.05-4.53,7.65-6.76,13.22-6.76,7.87,0,14.04,4.38,14.04,13.22,0,2.01-.22,3.27-.52,4.83l-3.79,19.61h-8.99l3.94-20.28c.15-.67.3-1.78.3-2.75,0-4.46-2.97-6.39-6.69-6.39-3.94,0-7.06,2.23-8.1,7.73l-4.16,21.69h-4.2l4.95-30.9Z"/>
        <path class="cls-1" d="m193.55,22.81c3.05-4.53,7.65-6.76,13.22-6.76,7.87,0,14.04,4.38,14.04,13.22,0,2.01-.22,3.27-.52,4.83l-3.79,19.61h-8.99l3.94-20.28c.15-.67.3-1.78.3-2.75,0-4.46-2.97-6.39-6.69-6.39-3.94,0-7.06,2.23-8.1,7.73l-4.16,21.69h-4.2l4.95-30.9Z"/>
        <path class="cls-1" d="m217.24,22.81c3.05-4.53,7.65-6.76,13.22-6.76,7.87,0,14.04,4.38,14.04,13.22,0,2.01-.22,3.27-.52,4.83l-3.79,19.61h-8.99l3.94-20.28c.15-.67.3-1.78.3-2.75,0-4.46-2.97-6.39-6.69-6.39-3.94,0-7.06,2.23-8.1,7.73l-4.16,21.69h-4.2l4.95-30.9Z"/>
      </g>
      <g>
        <path class="cls-1" d="m240.94,22.81c3.05-4.53,7.65-6.76,13.22-6.76,7.87,0,14.04,4.38,14.04,13.22,0,2.01-.22,3.27-.52,4.83l-3.79,19.61h-8.99l3.94-20.28c.15-.67.3-1.78.3-2.75,0-4.46-2.97-6.39-6.69-6.39-3.94,0-7.06,2.23-8.1,7.73l-4.16,21.69h-4.2l4.95-30.9Z"/>
        <path class="cls-1" d="m264.64,22.81c3.05-4.53,7.65-6.76,13.22-6.76,7.87,0,14.04,4.38,14.04,13.22,0,2.01-.22,3.27-.52,4.83l-3.79,19.61h-8.99l3.94-20.28c.15-.67.3-1.78.3-2.75,0-4.46-2.97-6.39-6.69-6.39-3.94,0-7.06,2.23-8.1,7.73l-4.16,21.69h-4.2l4.95-30.9Z"/>
        <path class="cls-1" d="m288.34,22.81c3.05-4.53,7.65-6.76,13.22-6.76,7.87,0,14.04,4.38,14.04,13.22,0,2.01-.22,3.27-.52,4.83l-3.79,19.61h-8.99l3.94-20.28c.15-.67.3-1.78.3-2.75,0-4.46-2.97-6.39-6.69-6.39-3.94,0-7.06,2.23-8.1,7.73l-4.16,21.69h-4.2l4.95-30.9Z"/>
      </g>
      <g>
        <path class="cls-1" d="m312.03,22.81c3.05-4.53,7.65-6.76,13.22-6.76,7.87,0,14.04,4.38,14.04,13.22,0,2.01-.22,3.27-.52,4.83l-3.79,19.61h-8.99l3.94-20.28c.15-.67.3-1.78.3-2.75,0-4.46-2.97-6.39-6.69-6.39-3.94,0-7.06,2.23-8.1,7.73l-4.16,21.69h-4.2l4.95-30.9Z"/>
        <path class="cls-1" d="m335.73,22.81c3.05-4.53,7.65-6.76,13.22-6.76,7.87,0,14.04,4.38,14.04,13.22,0,2.01-.22,3.27-.52,4.83l-3.79,19.61h-8.99l3.94-20.28c.15-.67.3-1.78.3-2.75,0-4.46-2.97-6.39-6.69-6.39-3.94,0-7.06,2.23-8.1,7.73l-4.16,21.69h-4.2l4.95-30.9Z"/>
        <path class="cls-1" d="m359.43,22.81c3.05-4.53,7.65-6.76,13.22-6.76,7.87,0,14.04,4.38,14.04,13.22,0,2.01-.22,3.27-.52,4.83l-3.79,19.61h-8.99l3.94-20.28c.15-.67.3-1.78.3-2.75,0-4.46-2.97-6.39-6.69-6.39-3.94,0-7.06,2.23-8.1,7.73l-4.16,21.69h-4.2l4.95-30.9Z"/>
      </g>
      <g>
        <path class="cls-1" d="m383.13,22.81c3.05-4.53,7.65-6.76,13.22-6.76,7.87,0,14.04,4.38,14.04,13.22,0,2.01-.22,3.27-.52,4.83l-3.79,19.61h-8.99l3.94-20.28c.15-.67.3-1.78.3-2.75,0-4.46-2.97-6.39-6.69-6.39-3.94,0-7.06,2.23-8.1,7.73l-4.16,21.69h-4.2l4.95-30.9Z"/>
        <path class="cls-1" d="m406.82,22.81c3.05-4.53,7.65-6.76,13.22-6.76,7.87,0,14.04,4.38,14.04,13.22,0,2.01-.22,3.27-.52,4.83l-3.79,19.61h-8.99l3.94-20.28c.15-.67.3-1.78.3-2.75,0-4.46-2.97-6.39-6.69-6.39-3.94,0-7.06,2.23-8.1,7.73l-4.16,21.69h-4.2l4.95-30.9Z"/>
        <path class="cls-1" d="m430.52,22.81c3.05-4.53,7.65-6.76,13.22-6.76,7.87,0,14.04,4.38,14.04,13.22,0,2.01-.22,3.27-.52,4.83l-3.79,19.61h-8.99l3.94-20.28c.15-.67.3-1.78.3-2.75,0-4.46-2.97-6.39-6.69-6.39-3.94,0-7.06,2.23-8.1,7.73l-4.16,21.69h-4.2l4.95-30.9Z"/>
      </g>
      <g>
        <path class="cls-1" d="m454.22,22.81c3.05-4.53,7.65-6.76,13.22-6.76,7.87,0,14.04,4.38,14.04,13.22,0,2.01-.22,3.27-.52,4.83l-3.79,19.61h-8.99l3.94-20.28c.15-.67.3-1.78.3-2.75,0-4.46-2.97-6.39-6.69-6.39-3.94,0-7.06,2.23-8.1,7.73l-4.16,21.69h-4.2l4.95-30.9Z"/>
        <path class="cls-1" d="m477.92,22.81c3.05-4.53,7.65-6.76,13.22-6.76,7.87,0,14.04,4.38,14.04,13.22,0,2.01-.22,3.27-.52,4.83l-3.79,19.61h-8.99l3.94-20.28c.15-.67.3-1.78.3-2.75,0-4.46-2.97-6.39-6.69-6.39-3.94,0-7.06,2.23-8.1,7.73l-4.16,21.69h-4.2l4.95-30.9Z"/>
        <path class="cls-1" d="m501.61,22.81c3.05-4.53,7.65-6.76,13.22-6.76,7.87,0,14.04,4.38,14.04,13.22,0,2.01-.22,3.27-.52,4.83l-3.79,19.61h-8.99l3.94-20.28c.15-.67.3-1.78.3-2.75,0-4.46-2.97-6.39-6.69-6.39-3.94,0-7.06,2.23-8.1,7.73l-4.16,21.69h-4.2l4.95-30.9Z"/>
      </g>
      <g>
        <path class="cls-1" d="m525.31,22.81c3.05-4.53,7.65-6.76,13.22-6.76,7.87,0,14.04,4.38,14.04,13.22,0,2.01-.22,3.27-.52,4.83l-3.79,19.61h-8.99l3.94-20.28c.15-.67.3-1.78.3-2.75,0-4.46-2.97-6.39-6.69-6.39-3.94,0-7.06,2.23-8.1,7.73l-4.16,21.69h-4.2l4.95-30.9Z"/>
        <path class="cls-1" d="m549.01,22.81c3.05-4.53,7.65-6.76,13.22-6.76,7.87,0,14.04,4.38,14.04,13.22,0,2.01-.22,3.27-.52,4.83l-3.79,19.61h-8.99l3.94-20.28c.15-.67.3-1.78.3-2.75,0-4.46-2.97-6.39-6.69-6.39-3.94,0-7.06,2.23-8.1,7.73l-4.16,21.69h-4.2l4.95-30.9Z"/>
        <path class="cls-1" d="m572.71,22.81c3.05-4.53,7.65-6.76,13.22-6.76,7.87,0,14.04,4.38,14.04,13.22,0,2.01-.22,3.27-.52,4.83l-3.79,19.61h-8.99l3.94-20.28c.15-.67.3-1.78.3-2.75,0-4.46-2.97-6.39-6.69-6.39-3.94,0-7.06,2.23-8.1,7.73l-4.16,21.69h-4.2l4.95-30.9Z"/>
      </g>
      <g>
        <path class="cls-1" d="m605.66,34.1V0h8.84v21.39c2.6-4.09,6.98-6.31,12.26-6.31,8.91,0,18.27,6.39,18.27,18.94,0,11.66-8.17,19.69-19.83,19.69s-19.54-7.73-19.54-19.61Zm30.46.3c0-6.46-4.38-11.07-10.85-11.07s-10.77,4.61-10.77,11.07,4.31,11.07,10.77,11.07,10.85-4.61,10.85-11.07Z"/>
        <path class="cls-1" d="m672.87,34.4c0-11.14,8.17-19.31,19.76-19.31s19.61,8.17,19.61,19.31v3.12h-30.09c1.19,5.35,5.27,8.17,10.47,8.17,3.94,0,6.83-1.11,8.69-3.49h9.43c-2.75,6.98-9.43,11.51-18.13,11.51-11.59,0-19.76-8.17-19.76-19.31Zm30.01-3.94c-1.41-4.9-5.42-7.35-10.25-7.35s-8.84,2.53-10.25,7.35h20.5Z"/>
        <path class="cls-1" d="m717.4,0h8.99v52.74h-8.99V0Z"/>
        <path class="cls-1" d="m734.2,0h8.99v52.74h-8.99V0Z"/>
        <path class="cls-1" d="m748.15,34.77c0-11.66,8.17-19.69,19.83-19.69s19.54,7.8,19.54,19.61v18.05h-8.1v-7.21c-2.23,5.42-7.21,8.17-13,8.17-8.91,0-18.27-6.39-18.27-18.94Zm30.53-.37c0-6.46-4.31-11.07-10.77-11.07s-10.85,4.61-10.85,11.07,4.38,11.07,10.85,11.07,10.77-4.61,10.77-11.07Z"/>
        <path class="cls-1" d="m572.71,22.81c3.05-4.53,7.65-6.76,13.22-6.76,7.87,0,14.04,4.38,14.04,13.22,0,2.01-.22,3.27-.52,4.83l-3.79,19.61h-8.99l3.94-20.28c.15-.67.3-1.78.3-2.75,0-4.46-2.97-6.39-6.69-6.39-3.94,0-7.06,2.23-8.1,7.73l-4.16,21.69h-4.2l4.95-30.9Z"/>
        <path class="cls-1" d="m666.43,15.08c-9.58,0-16.12,5.27-16.12,16.34v21.32h8.84v-21.32c0-5.94,2.97-8.1,7.28-8.1,1.25,0,2.39.19,3.37.59l1.61-8.29c-1.54-.37-3.21-.55-4.98-.55Z"/>
      </g>
    </g>
  </g>
</svg>